<svg xmlns="http://www.w3.org/2000/svg" xmlns:xlink="http://www.w3.org/1999/xlink" width="500" zoomAndPan="magnify" viewBox="0 0 375 374.999991" height="500" preserveAspectRatio="xMidYMid meet" version="1.2"><defs><clipPath id="324c71a9d0"><path d="M 150.996094 134.792969 L 224.003906 134.792969 L 224.003906 207.800781 L 150.996094 207.800781 Z M 150.996094 134.792969 "/></clipPath><clipPath id="7218898ffd"><path d="M 187.5 134.792969 C 167.339844 134.792969 150.996094 151.136719 150.996094 171.296875 C 150.996094 191.457031 167.339844 207.800781 187.5 207.800781 C 207.660156 207.800781 224.003906 191.457031 224.003906 171.296875 C 224.003906 151.136719 207.660156 134.792969 187.5 134.792969 Z M 187.5 134.792969 "/></clipPath><clipPath id="1a5db71441"><path d="M 160.785156 150.738281 L 214.324219 150.738281 L 214.324219 197.949219 L 160.785156 197.949219 Z M 160.785156 150.738281 "/></clipPath></defs><g id="0eb0dbed50"><rect x="0" width="375" y="0" height="374.999991" style="fill:#ffffff;fill-opacity:1;stroke:none;"/><rect x="0" width="375" y="0" height="374.999991" style="fill:#ffffff;fill-opacity:1;stroke:none;"/><g clip-rule="nonzero" clip-path="url(#324c71a9d0)"><g clip-rule="nonzero" clip-path="url(#7218898ffd)"><path style=" stroke:none;fill-rule:nonzero;fill:#a78bfa;fill-opacity:1;" d="M 150.996094 134.792969 L 224.003906 134.792969 L 224.003906 207.800781 L 150.996094 207.800781 Z M 150.996094 134.792969 "/></g></g><g clip-rule="nonzero" clip-path="url(#1a5db71441)"><path style=" stroke:none;fill-rule:nonzero;fill:#ffffff;fill-opacity:1;" d="M 187.554688 197.9375 L 186.988281 197.554688 C 186.921875 197.511719 180.402344 193.078125 173.976562 186.953125 C 170.1875 183.332031 167.15625 179.835938 164.972656 176.554688 C 162.199219 172.355469 160.785156 168.46875 160.785156 165.015625 C 160.785156 157.152344 167.21875 150.75 175.121094 150.75 C 178.054688 150.75 180.894531 151.644531 183.3125 153.347656 C 185.070312 154.585938 186.503906 156.160156 187.554688 157.972656 C 188.605469 156.152344 190.039062 154.574219 191.796875 153.347656 C 194.214844 151.644531 197.054688 150.75 199.988281 150.75 C 207.890625 150.75 214.324219 157.152344 214.324219 165.015625 L 214.324219 165.027344 C 214.292969 168.457031 212.867188 172.3125 210.085938 176.5 C 207.898438 179.78125 204.878906 183.277344 201.089844 186.910156 C 194.675781 193.058594 188.1875 197.511719 188.121094 197.554688 Z M 175.121094 152.742188 C 168.324219 152.742188 162.785156 158.25 162.785156 165.015625 C 162.785156 168.074219 164.082031 171.578125 166.640625 175.433594 C 168.730469 178.589844 171.664062 181.976562 175.347656 185.492188 C 180.5625 190.46875 185.851562 194.316406 187.554688 195.507812 C 189.257812 194.304688 194.515625 190.4375 199.71875 185.449219 C 203.390625 181.921875 206.316406 178.546875 208.414062 175.394531 C 210.972656 171.535156 212.289062 168.050781 212.3125 165.015625 C 212.3125 158.25 206.777344 152.75 199.976562 152.75 C 194.933594 152.75 190.316406 155.925781 188.476562 160.65625 L 187.542969 163.066406 L 186.625 160.65625 C 184.78125 155.925781 180.167969 152.742188 175.121094 152.742188 Z M 175.121094 152.742188 "/></g></g></svg>